<svg width="32" height="33" viewBox="0 0 32 33" fill="none" xmlns="http://www.w3.org/2000/svg">
<path d="M18.9145 11.973C18.9408 12.0748 18.9672 12.1766 18.9934 12.2785C19.0116 12.3489 19.0297 12.4193 19.052 12.5057C18.9187 12.4167 18.8093 12.3363 18.6929 12.2677C18.5098 12.1597 18.3183 12.0795 18.1024 12.0461C17.7688 11.9945 17.4553 12.0608 17.1438 12.1608C17.0709 12.1843 17.0055 12.2302 16.9348 12.2614C16.8825 12.2845 16.8213 12.2913 16.7743 12.3213C16.6542 12.3979 16.5334 12.4763 16.4274 12.5703C16.4004 12.5941 16.4094 12.6888 16.4336 12.7337C16.4851 12.829 16.5567 12.9134 16.6215 13.0012C16.6846 13.0866 16.7474 13.1724 16.8145 13.2546C16.853 13.3019 16.9007 13.3416 16.9428 13.3862C17.0013 13.4482 17.0567 13.5132 17.1165 13.5739C17.3169 13.7771 17.5359 13.9552 17.8005 14.0702C17.8097 14.0742 17.8183 14.0796 17.8327 14.0913C17.8484 14.099 17.8585 14.0997 17.8686 14.1005C17.8807 14.1056 17.8929 14.1107 17.9107 14.1232C17.957 14.1412 17.9977 14.1517 18.0383 14.1622C18.1825 14.1732 18.3266 14.1843 18.4788 14.2009C18.4939 14.2099 18.5011 14.2133 18.5083 14.2167C18.5109 14.2051 18.5134 14.1935 18.5159 14.1819C18.5275 14.1812 18.5391 14.1806 18.5573 14.1855C18.5711 14.1945 18.5783 14.1978 18.5855 14.2012C18.588 14.1897 18.5905 14.1781 18.5931 14.1665C18.6 14.1658 18.6068 14.1652 18.6198 14.1705C18.6314 14.1809 18.6389 14.1904 18.6419 14.1891C18.7326 14.1507 18.8232 14.112 18.9126 14.0709C18.9199 14.0675 18.9191 14.0468 18.9221 14.0342C18.9221 14.0342 18.9241 14.0319 18.9311 14.0343C18.9483 14.0256 18.9584 14.0144 18.9685 14.0032C18.9685 14.0032 18.9705 14.001 18.9767 14.0031C18.9916 13.9958 19.0003 13.9864 19.009 13.977C19.0427 13.9467 19.0759 13.9157 19.1102 13.8861C19.3391 13.689 19.4945 13.4337 19.6523 13.1832C19.8714 12.8355 20.0836 12.4828 20.2818 12.1229C20.4608 11.7978 20.628 11.4652 20.7808 11.127C21.0704 10.4856 21.2983 9.82094 21.4589 9.13555C21.5313 8.8268 21.5825 8.51249 21.6295 8.19863C21.6592 8.0006 21.6674 7.79895 21.6777 7.59854C21.6881 7.39923 21.7012 7.19885 21.6915 6.99999C21.6769 6.70104 21.6544 6.40153 21.6147 6.10501C21.5783 5.83339 21.5242 5.56314 21.4607 5.29638C21.372 4.92374 21.2487 4.56094 21.0913 4.2113C20.9835 3.9721 20.8728 3.73375 20.7512 3.50142C20.5496 3.11624 20.3097 2.75486 20.0512 2.40501C19.7114 1.94527 19.32 1.5326 18.9054 1.14242C18.6786 0.928974 18.4312 0.736987 18.1889 0.540566C18.0468 0.425391 17.8964 0.320514 17.7502 0.211414C17.8692 0.140448 17.9914 0.172143 18.1078 0.221226C18.5106 0.391087 18.9097 0.570368 19.281 0.802468C19.61 1.00817 19.9386 1.21637 20.2533 1.4429C20.6171 1.70469 20.936 2.02099 21.2396 2.3493C21.5459 2.68033 21.8128 3.04427 22.0429 3.43203C22.2657 3.80756 22.4651 4.19663 22.6041 4.6123C22.7046 4.91275 22.8048 5.21413 22.8845 5.52047C22.9509 5.77582 22.9965 6.03763 23.0344 6.29904C23.0761 6.58711 23.1102 6.87734 23.1264 7.16781C23.1483 7.55861 23.1578 7.95056 23.1572 8.34199C23.1568 8.59877 23.1365 8.85623 23.1117 9.11208C23.0848 9.38873 23.0425 9.66389 23.0067 9.93966C22.9362 10.4828 22.8173 11.0163 22.6801 11.5456C22.612 11.8084 22.5369 12.0701 22.4494 12.327C22.2848 12.8105 22.1086 13.2901 21.9388 13.7718C21.9308 13.7945 21.9378 13.8224 21.9378 13.8712C22.0664 13.7746 22.1877 13.7 22.2887 13.604C22.4752 13.4266 22.6587 13.2445 22.8274 13.0504C23.111 12.7237 23.3612 12.3709 23.574 11.9938C23.7155 11.7429 23.8594 11.4914 23.9748 11.2282C24.1476 10.8342 24.3151 10.4359 24.4504 10.028C24.6229 9.50804 24.7714 8.97945 24.9102 8.44936C25.0032 8.09429 25.0651 7.73081 25.1341 7.36979C25.1861 7.09741 25.2315 6.82358 25.272 6.54923C25.3045 6.329 25.3253 6.10704 25.3511 5.88582C25.3768 5.66454 25.4048 5.44349 25.4267 5.22184C25.442 5.06744 25.4476 4.91212 25.4592 4.75734C25.479 4.49379 25.5009 4.2304 25.5201 3.96681C25.5279 3.85999 25.532 3.75285 25.5359 3.64579C25.542 3.47967 25.5433 3.3133 25.5532 3.14743C25.5571 3.08147 25.5784 3.01655 25.6098 2.95128C25.6363 3.04137 25.6671 3.13044 25.6883 3.22174C25.7827 3.62862 25.8809 4.03478 25.9645 4.44392C26.0145 4.68845 26.0436 4.93753 26.0753 5.18543C26.1059 5.42406 26.1305 5.66355 26.1525 5.90315C26.1676 6.06787 26.1795 6.23328 26.1831 6.39859C26.1917 6.78837 26.2031 7.17843 26.1966 7.56808C26.1922 7.82669 26.1615 8.08508 26.1373 8.34307C26.1155 8.57496 26.0931 8.80715 26.0589 9.03741C26.0192 9.30409 25.9745 9.57059 25.9174 9.834C25.7921 10.4121 25.6436 10.9848 25.4425 11.5416C25.3066 11.918 25.1623 12.2919 25.0056 12.6599C24.8651 12.9897 24.7152 13.3168 24.5467 13.633C24.3153 14.0671 24.071 14.4949 23.8163 14.9157C23.588 15.2929 23.3381 15.657 23.0964 16.029C23.2819 16.0736 23.4584 16.0176 23.6337 15.9547C23.9245 15.8503 24.1914 15.6984 24.4214 15.4958C24.6198 15.3211 24.8121 15.1326 24.9734 14.9242C25.1952 14.6376 25.4014 14.3359 25.5845 14.0233C25.7779 13.693 25.9459 13.3468 26.1072 12.9992C26.2575 12.6753 26.3942 12.3442 26.519 12.0096C26.6597 11.6324 26.7915 11.2511 26.9071 10.8656C27.0709 10.3188 27.2189 9.76723 27.3683 9.21627C27.4189 9.02947 27.4516 8.83786 27.4965 8.64941C27.5084 8.59931 27.527 8.54591 27.6102 8.52338C27.6183 8.60574 27.6261 8.67902 27.6324 8.75242C27.6406 8.84754 27.6474 8.94276 27.6601 9.0397C27.6654 9.55095 27.6654 10.0604 27.6597 10.5775C27.6504 10.5875 27.6436 10.5898 27.6435 10.5923C27.6401 10.7094 27.6414 10.8268 27.6327 10.9435C27.6272 11.0179 27.6034 11.0909 27.5946 11.1653C27.5873 11.2273 27.5919 11.2906 27.5876 11.3531C27.5841 11.4036 27.5761 11.4539 27.5685 11.504C27.5549 11.594 27.5409 11.684 27.5255 11.7737C27.5119 11.8527 27.4962 11.9313 27.4814 12.01C27.4697 12.0724 27.4585 12.1348 27.4464 12.1971C27.4288 12.2877 27.4136 12.3789 27.3921 12.4686C27.365 12.5813 27.333 12.6928 27.3024 12.8046C27.2535 12.9833 27.2081 13.163 27.1534 13.3399C27.106 13.4932 27.0479 13.6432 26.9942 13.7946C26.9299 13.9755 26.8763 14.1614 26.798 14.3361C26.6638 14.6354 26.522 14.932 26.3682 15.2218C26.2277 15.4866 26.079 15.7487 25.9121 15.9975C25.693 16.3244 25.4629 16.6451 25.2183 16.9533C24.9845 17.2476 24.7296 17.5256 24.4772 17.8046C24.3377 17.9589 24.184 18.1003 24.037 18.2478C24.0202 18.2646 24.0052 18.2833 23.9864 18.3044C24.0191 18.3154 24.0408 18.3219 24.062 18.3298C24.4559 18.4764 24.8551 18.6104 25.2418 18.7738C25.5509 18.9045 25.8381 19.0813 26.1112 19.2797C26.3719 19.4691 26.6101 19.6821 26.808 19.9359C27.0763 20.2799 27.272 20.6604 27.3655 21.0909C27.4207 21.3452 27.4235 21.6019 27.4169 21.8593C27.4146 21.9477 27.3946 22.0356 27.3812 22.1352C27.3663 22.119 27.3608 22.1146 27.3572 22.109C27.2286 21.9098 27.1059 21.7066 26.9706 21.5121C26.7096 21.1369 26.3843 20.825 26.0084 20.5654C25.6692 20.3312 25.3014 20.1581 24.906 20.0411C24.6505 19.9655 24.3889 19.9183 24.1245 19.9074C23.9113 19.8986 23.6963 19.9188 23.4828 19.9355C23.1931 19.9582 22.9202 20.0485 22.6583 20.1699C22.254 20.3573 21.9038 20.6249 21.5868 20.9331C21.3746 21.1394 21.1729 21.358 20.9823 21.5843C20.7971 21.8043 20.6267 22.0374 20.4593 22.2716C20.1638 22.6852 19.9167 23.1289 19.6814 23.5783C19.5266 23.8739 19.3825 24.1754 19.2446 24.4793C19.0602 24.8856 18.8744 25.2919 18.7111 25.7068C18.4909 26.2664 18.2848 26.8318 18.0858 27.3993C17.9484 27.7909 17.8287 28.1888 17.7094 28.5864C17.5677 29.0585 17.4263 29.5309 17.3006 30.0073C17.1517 30.5715 17.0213 31.1406 16.879 31.7066C16.8526 31.8118 16.8586 31.9302 16.7724 32.0154C16.7656 32.0154 16.7587 32.0154 16.7467 32.0154C16.7213 31.7726 16.7008 31.5298 16.6809 31.2869C16.6697 31.1502 16.6623 31.013 16.6483 30.8766C16.6319 30.7182 16.6109 30.5602 16.5905 30.4023C16.5698 30.2419 16.5511 30.0811 16.5247 29.9216C16.4795 29.6482 16.4359 29.3742 16.379 29.1031C16.3113 28.7808 16.243 28.4576 16.152 28.1414C16.0346 27.7332 15.9007 27.3293 15.7615 26.9279C15.6799 26.6928 15.5672 26.4686 15.4811 26.2348C15.3955 26.0026 15.4242 25.7702 15.497 25.5355C15.7011 24.8775 15.9063 24.2195 16.0916 23.556C16.2261 23.0743 16.3366 22.5856 16.4442 22.097C16.5059 21.8167 16.5423 21.5306 16.5869 21.2467C16.6202 21.0347 16.6509 20.8223 16.678 20.6094C16.6937 20.4861 16.6973 20.3613 16.7112 20.2378C16.7696 19.7201 16.7558 19.2004 16.7572 18.6812C16.7574 18.5848 16.7369 18.4884 16.7278 18.3917C16.7206 18.3154 16.7187 18.2386 16.7101 18.1625C16.6973 18.0489 16.6795 17.9358 16.666 17.8223C16.6556 17.7347 16.6505 17.6465 16.6393 17.559C16.6311 17.4951 16.6179 17.4317 16.6048 17.3685C16.5861 17.2786 16.5666 17.1889 16.5455 17.0996C16.5127 16.9603 16.4781 16.8215 16.4446 16.6824C16.4269 16.6088 16.4117 16.5345 16.3919 16.4614C16.3776 16.4088 16.3576 16.3578 16.3436 16.2968C16.2961 16.1277 16.2453 15.9678 16.1935 15.8082C16.192 15.8036 16.1802 15.8023 16.1733 15.7994C16.1672 15.7876 16.1612 15.7758 16.1584 15.756C16.1501 15.724 16.1385 15.7 16.127 15.676C16.1209 15.6642 16.1149 15.6524 16.1118 15.6331C16.1085 15.6168 16.1023 15.6078 16.0961 15.5989C16.0901 15.587 16.084 15.5752 16.0809 15.556C16.0776 15.5396 16.0714 15.5307 16.0653 15.5217C16.0592 15.5099 16.0532 15.4981 16.0501 15.4788C16.0468 15.4625 16.0406 15.4535 16.0344 15.4446C16.0284 15.4327 16.0223 15.4209 16.0192 15.4017C16.0159 15.3853 16.0097 15.3764 16.0035 15.3674C15.9975 15.3556 15.9915 15.3438 15.9884 15.3245C15.9851 15.3082 15.9789 15.2992 15.9727 15.2903C15.9615 15.2684 15.9504 15.2465 15.9421 15.2168C15.9388 15.2002 15.9326 15.1912 15.9264 15.1823C15.9101 15.1502 15.8938 15.1181 15.8804 15.0781C15.8771 15.0613 15.8709 15.0524 15.8647 15.0434C15.733 14.8021 15.6117 14.5543 15.4665 14.3214C15.3269 14.0973 15.1647 13.887 15.0081 13.6738C14.8766 13.4948 14.7331 13.3245 14.6053 13.143C14.4475 12.9187 14.294 12.6906 14.1508 12.4567C14.0522 12.2957 13.9743 12.1221 13.8901 11.9461C13.8867 11.9292 13.8805 11.9203 13.8743 11.9113C13.858 11.8792 13.8417 11.8471 13.8283 11.8071C13.825 11.7903 13.8188 11.7814 13.8126 11.7724C13.8066 11.7606 13.8005 11.7488 13.7974 11.7296C13.7941 11.7132 13.7879 11.7043 13.7817 11.6953C13.7757 11.6835 13.7697 11.6716 13.7666 11.6524C13.7633 11.6361 13.7571 11.6271 13.7509 11.6182C13.7449 11.6063 13.7388 11.5945 13.7362 11.5744C13.7164 11.4868 13.6949 11.407 13.6691 11.3285C13.6613 11.3048 13.6417 11.2849 13.6274 11.2633C13.5942 11.1218 13.5655 10.979 13.5264 10.8391C13.4829 10.6836 13.4765 10.525 13.4576 10.3664C13.4246 10.0903 13.4708 9.83085 13.5527 9.57328C13.5894 9.45813 13.5727 9.37049 13.4878 9.27769C13.3325 9.10791 13.1949 8.92204 13.0439 8.74807C12.8981 8.58002 12.7977 8.38571 12.702 8.18144C12.6987 8.16451 12.6925 8.15555 12.6863 8.1466C12.6751 8.12468 12.664 8.10276 12.656 8.07255C12.6477 8.04027 12.6361 8.01629 12.6246 7.99231C12.6185 7.98049 12.6125 7.96866 12.6094 7.94943C12.6061 7.93307 12.5999 7.92412 12.5937 7.91516C12.5654 7.78987 12.543 7.66289 12.5075 7.5397C12.4591 7.37185 12.4398 7.20019 12.4551 7.02923C12.4761 6.79569 12.5021 6.56062 12.5527 6.33214C12.6525 5.88193 12.8801 5.48908 13.1437 5.1162C13.214 5.01663 13.2888 4.9201 13.3624 4.82289C13.3743 4.80724 13.3911 4.79535 13.4068 4.78058C13.4814 4.95039 13.4108 5.10025 13.3637 5.25467C13.3299 5.3652 13.3114 5.48032 13.2848 5.59311C13.2637 5.6829 13.2352 5.77134 13.2202 5.86208C13.2046 5.95608 13.1983 6.05197 13.1935 6.14732C13.1857 6.30595 13.1789 6.46481 13.1787 6.62358C13.1786 6.70073 13.1942 6.77794 13.2034 6.85505C13.2117 6.92452 13.2209 6.99388 13.236 7.0689C13.2448 7.07786 13.2481 7.08024 13.252 7.08164C13.253 7.09311 13.2539 7.10458 13.2514 7.12498C13.2698 7.18858 13.2918 7.24326 13.3137 7.29795C13.3586 7.46724 13.451 7.60831 13.5712 7.73328C13.6249 7.78917 13.6738 7.84992 13.7299 7.90323C13.8383 8.00626 13.9503 8.10454 14.0914 8.1639C14.1611 8.19322 14.2265 8.23271 14.2995 8.27451C14.3152 8.28219 14.3253 8.28297 14.3353 8.28375C14.3475 8.28884 14.3596 8.29393 14.377 8.30565C14.3923 8.31305 14.4024 8.31383 14.4125 8.31461C14.4246 8.3197 14.4367 8.32479 14.4546 8.3374C14.5351 8.36949 14.6098 8.39406 14.6845 8.41863C14.7031 8.41962 14.7217 8.42061 14.7471 8.42971C14.7669 8.44151 14.7798 8.44521 14.7927 8.4489C14.8737 8.46127 14.9564 8.46689 15.0352 8.48728C15.2606 8.54553 15.4897 8.53137 15.7182 8.53219C15.8076 8.5325 15.9021 8.55007 15.9851 8.52686C16.1213 8.48876 16.2572 8.48136 16.3945 8.48792C16.4864 8.49231 16.5775 8.51479 16.6756 8.53732C16.7382 8.56109 16.7942 8.5767 16.8503 8.59232C16.968 8.63295 17.0673 8.70277 17.1604 8.78403C17.2369 8.85085 17.3258 8.90551 17.3935 8.97993C17.4908 9.08701 17.5755 9.20578 17.6625 9.32192C17.8991 9.63782 18.0956 9.97876 18.258 10.3371C18.4159 10.6855 18.5543 11.0428 18.7013 11.3962C18.7081 11.4125 18.7151 11.4287 18.727 11.454C18.7844 11.6281 18.8367 11.7931 18.8902 11.9578C18.8924 11.9648 18.9061 11.968 18.9145 11.973ZM16.8925 10.723C16.9142 10.7291 16.9359 10.7352 16.9598 10.7517C16.9896 10.7638 17.0192 10.8184 17.0458 10.7423C17.0114 10.6749 16.9769 10.6076 16.9426 10.5402C16.8449 10.3479 16.7197 10.1755 16.5332 10.0637C16.3991 9.9833 16.2527 9.92279 16.109 9.85956C16.0242 9.82223 15.9603 9.84225 15.9058 9.90685C15.8764 9.94164 15.8817 10.0562 15.9191 10.1078C15.9567 10.1598 15.993 10.2147 16.0396 10.2578C16.1176 10.3299 16.199 10.4003 16.2872 10.4589C16.3714 10.515 16.4663 10.5552 16.5577 10.6112C16.5678 10.612 16.5779 10.6128 16.5981 10.6151C16.6099 10.6212 16.6217 10.6272 16.6349 10.6421C16.645 10.6428 16.655 10.6436 16.6752 10.646C16.6871 10.652 16.6989 10.6581 16.713 10.6747C16.769 10.6903 16.8251 10.7059 16.8925 10.723Z" fill="#22B7FB"/>
<path d="M5.01543 9.15461C5.02572 9.12088 5.04121 9.09303 5.04538 9.06358C5.06289 8.93979 5.07702 8.81551 5.09449 8.67447C5.18433 8.7504 5.19588 8.83642 5.21426 8.91771C5.3193 9.3822 5.40828 9.8509 5.53071 10.3107C5.66416 10.812 5.81722 11.3088 5.98261 11.8005C6.09418 12.1322 6.23365 12.4553 6.37535 12.7758C6.61003 13.3066 6.88263 13.8183 7.21961 14.292C7.36472 14.496 7.52643 14.6886 7.68623 14.8817C7.93324 15.1802 8.2334 15.4192 8.55684 15.6285C8.85372 15.8207 9.16984 15.9718 9.5231 16.0286C9.60544 16.0419 9.69017 16.0402 9.79562 16.0468C9.78053 16.0028 9.7789 15.9587 9.75601 15.9377C9.58352 15.7792 9.40318 15.6293 9.23267 15.4688C9.10413 15.3478 8.98324 15.2182 8.86501 15.087C8.76668 14.9778 8.67165 14.8648 8.58493 14.7463C8.39991 14.4935 8.21185 14.2421 8.04206 13.9792C7.75319 13.5318 7.52547 13.052 7.33045 12.5568C7.13245 12.0539 6.97739 11.5375 6.85848 11.011C6.78964 10.7061 6.73556 10.3978 6.68292 10.0896C6.64038 9.84053 6.60531 9.58995 6.57559 9.33901C6.55259 9.14479 6.54071 8.94913 6.5281 8.75384C6.51496 8.55022 6.50194 8.34637 6.49762 8.14244C6.48899 7.7346 6.48216 7.32663 6.48294 6.91873C6.48335 6.70976 6.49863 6.50061 6.51291 6.29193C6.53008 6.04095 6.54882 5.78992 6.57515 5.53979C6.60614 5.24527 6.64118 4.95099 6.68341 4.65789C6.72298 4.38328 6.77413 4.11033 6.82068 3.83674C6.82318 3.82204 6.83133 3.80839 6.83513 3.79381C6.84999 3.73687 6.87814 3.73556 6.91525 3.77455C6.98487 3.8477 7.0141 3.93825 7.02074 4.03608C7.03765 4.28512 7.04953 4.53451 7.06853 4.78337C7.08515 5.00096 7.10617 5.2183 7.12994 5.43523C7.15751 5.68686 7.19058 5.93788 7.22055 6.18925C7.24215 6.37035 7.25958 6.55201 7.28437 6.73267C7.3108 6.92526 7.34301 7.11708 7.37398 7.30903C7.40454 7.49844 7.43492 7.68792 7.46861 7.87679C7.50891 8.10274 7.54676 8.32938 7.5963 8.55336C7.66645 8.87054 7.7406 9.18707 7.82361 9.50108C7.90987 9.82735 8.00435 10.1516 8.10304 10.4744C8.25455 10.9699 8.44059 11.4529 8.67481 11.9152C8.87631 12.313 9.11321 12.6889 9.39867 13.0341C9.64608 13.3333 9.91998 13.5978 10.2737 13.7668C10.3894 13.8221 10.5115 13.8643 10.6321 13.9087C10.6843 13.928 10.7424 13.9293 10.7794 13.8803C10.8169 13.8306 10.8004 13.78 10.7732 13.7243C10.7024 13.5794 10.6337 13.4326 10.5777 13.2815C10.4322 12.8891 10.2834 12.4974 10.1558 12.0991C10.0259 11.694 9.90979 11.2839 9.80633 10.8712C9.71814 10.5195 9.64765 10.1626 9.58583 9.8052C9.53586 9.51623 9.50662 9.22343 9.47551 8.93155C9.45341 8.72429 9.4377 8.51596 9.42957 8.3077C9.41868 8.02859 9.40809 7.74882 9.4156 7.46982C9.42251 7.21359 9.45191 6.95786 9.47439 6.70217C9.51166 6.27845 9.58741 5.86056 9.70852 5.45363C9.81335 5.1014 9.92822 4.7506 10.0652 4.40983C10.2808 3.87328 10.5625 3.36888 10.8975 2.89748C11.0719 2.65206 11.2673 2.42104 11.4608 2.18986C11.5853 2.04115 11.7147 1.89442 11.8575 1.76379C12.0936 1.54781 12.3327 1.33296 12.588 1.14076C12.8883 0.914645 13.2005 0.702424 13.5201 0.504468C13.7692 0.350202 14.0363 0.224554 14.2983 0.0920261C14.3501 0.0658398 14.4153 0.0662607 14.4748 0.0543216C14.4912 0.180287 14.4171 0.235108 14.3542 0.296362C14.1513 0.494144 13.9471 0.690679 13.7461 0.890337C13.6389 0.996739 13.5333 1.10515 13.4338 1.21867C13.2144 1.46908 12.9916 1.71715 12.7847 1.97767C12.5741 2.24273 12.3695 2.51407 12.1833 2.79646C11.9916 3.08707 11.8207 3.39176 11.6488 3.69493C11.3863 4.15812 11.1813 4.64807 11.0274 5.15652C10.929 5.48127 10.8518 5.81397 10.7896 6.14767C10.7387 6.42084 10.717 6.70022 10.6956 6.97787C10.6791 7.19204 10.6733 7.40813 10.6808 7.62274C10.6878 7.82506 10.7181 8.0266 10.7388 8.22841C10.7896 8.72279 10.9134 9.2013 11.067 9.67169C11.1466 9.91583 11.2425 10.1557 11.3466 10.3906C11.4583 10.6425 11.5827 10.8893 11.7114 11.1331C11.9334 11.5537 12.1863 11.9559 12.4707 12.3373C12.6597 12.5908 12.8547 12.8401 13.052 13.0872C13.141 13.1986 13.2405 13.3018 13.3382 13.4059C13.4662 13.5423 13.5902 13.6835 13.7282 13.8091C14.0199 14.0747 14.3156 14.3362 14.6168 14.5908C14.9441 14.8675 15.2217 15.1822 15.4282 15.5596C15.6618 15.9866 15.8101 16.4433 15.9073 16.9173C15.9564 17.157 15.9946 17.3991 16.0293 17.6414C16.0492 17.7795 16.0575 17.9199 16.0616 18.0596C16.0703 18.362 16.0786 18.6646 16.0764 18.967C16.0745 19.2198 16.0618 19.4726 16.0459 19.725C16.0311 19.9606 16.0102 20.1961 15.9842 20.4308C15.9527 20.715 15.9225 20.9999 15.875 21.2816C15.8018 21.7167 15.7281 22.1526 15.6298 22.5824C15.4815 23.2305 15.3136 23.8741 15.1495 24.5185C15.1136 24.6598 15.0593 24.7964 15.0116 24.9346C15.0058 24.9514 14.9892 24.9753 14.9762 24.9762C14.9607 24.9773 14.9392 24.9606 14.928 24.9458C14.7266 24.6797 14.5296 24.4101 14.3247 24.1467C14.1643 23.9406 14.0013 23.7357 13.827 23.5415C13.5131 23.1916 13.2 22.8402 12.8673 22.5087C12.6322 22.2743 12.3688 22.0675 12.1119 21.8557C11.7081 21.5228 11.2677 21.2454 10.7957 21.0192C10.471 20.8636 10.1301 20.752 9.77538 20.6943C9.57033 20.6609 9.35959 20.6424 9.1522 20.6478C8.73522 20.6587 8.33007 20.7389 7.94375 20.906C7.62537 21.0437 7.33314 21.2233 7.06658 21.4426C6.80829 21.655 6.56853 21.888 6.36577 22.1558C6.20853 22.3636 6.05374 22.5732 5.89718 22.7814C5.87842 22.8064 5.85544 22.8282 5.82242 22.8647C5.80308 22.7976 5.78152 22.745 5.77323 22.6903C5.74035 22.4735 5.7218 22.2559 5.77123 22.0388C5.82431 21.8056 5.86384 21.5681 5.936 21.3409C6.05326 20.9717 6.24561 20.6381 6.48953 20.3374C6.63535 20.1577 6.78513 19.9792 6.94973 19.8169C7.31741 19.4545 7.72016 19.1335 8.16557 18.8707C8.44604 18.7052 8.73412 18.5526 9.0189 18.3944C9.03658 18.3846 9.05687 18.3788 9.07318 18.3673C9.13593 18.3228 9.13411 18.2978 9.06351 18.2644C8.82567 18.1519 8.58392 18.0471 8.34986 17.9273C8.03847 17.7678 7.7451 17.5778 7.48206 17.346C7.30563 17.1906 7.12762 17.0345 6.96969 16.861C6.80477 16.6799 6.64933 16.4866 6.5146 16.2823C6.33682 16.0127 6.1651 15.736 6.02417 15.4461C5.87126 15.1315 5.74985 14.8009 5.62699 14.4727C5.43921 13.9711 5.31653 13.4507 5.2189 12.9252C5.17093 12.667 5.13947 12.4053 5.10922 12.1442C5.08205 11.9097 5.06707 11.6738 5.0456 11.4386C5.04413 11.4224 5.03345 11.4071 5.02124 11.389C5.01543 11.3751 5.01543 11.3636 5.02113 11.3429C5.02303 11.2691 5.01923 11.2045 5.01543 11.1398C5.01543 10.6098 5.01543 10.0797 5.02117 9.53905C5.02823 9.47563 5.03213 9.42272 5.03019 9.37003C5.02787 9.3067 5.02057 9.24356 5.01543 9.18033C5.01543 9.17347 5.01543 9.16661 5.01543 9.15461Z" fill="#808080"/>
<path d="M5.01543 9.18756C5.02057 9.24356 5.02787 9.3067 5.03019 9.37003C5.03213 9.42272 5.02823 9.47563 5.02117 9.53182C5.01543 9.42173 5.01543 9.30826 5.01543 9.18756Z" fill="white"/>
<path d="M5.01543 11.147C5.01923 11.2045 5.02303 11.2691 5.02113 11.3371C5.01543 11.2783 5.01543 11.2162 5.01543 11.147Z" fill="white"/>
<path d="M18.9154 11.9671C18.9061 11.968 18.8924 11.9648 18.8902 11.9578C18.8367 11.7931 18.7844 11.6281 18.7319 11.457C18.7729 11.5594 18.8148 11.6676 18.8546 11.7765C18.8769 11.8374 18.8958 11.8996 18.9154 11.9671Z" fill="#22B7FB"/>
<path d="M16.1724 15.8053C16.1802 15.8023 16.192 15.8036 16.1935 15.8082C16.2453 15.9678 16.2961 16.1277 16.3429 16.2907C16.283 16.133 16.2273 15.9721 16.1724 15.8053Z" fill="#22B7FB"/>
<path d="M18.9174 14.036C18.9191 14.0468 18.9199 14.0675 18.9126 14.0709C18.8232 14.112 18.7326 14.1507 18.6419 14.1891C18.6389 14.1904 18.6314 14.1809 18.625 14.1715C18.7202 14.1236 18.8165 14.0807 18.9174 14.036Z" fill="#22B7FB"/>
<path d="M13.6266 11.2692C13.6417 11.2849 13.6613 11.3048 13.6691 11.3285C13.6949 11.407 13.7164 11.4869 13.7354 11.5694C13.6961 11.4734 13.6609 11.3742 13.6266 11.2692Z" fill="#22B7FB"/>
<path d="M14.6818 8.4135C14.6098 8.39406 14.5351 8.36949 14.4592 8.33961C14.5317 8.35899 14.6054 8.38368 14.6818 8.4135Z" fill="#22B7FB"/>
<path d="M13.3146 7.29209C13.2918 7.24326 13.2698 7.18858 13.2521 7.13071C13.276 7.18042 13.2957 7.23332 13.3146 7.29209Z" fill="#22B7FB"/>
<path d="M16.8472 8.58748C16.7942 8.5767 16.7382 8.56109 16.681 8.54017C16.7346 8.5508 16.7894 8.56672 16.8472 8.58748Z" fill="#22B7FB"/>
<path d="M18.0353 14.1574C17.9977 14.1517 17.957 14.1412 17.9153 14.1254C17.9536 14.131 17.993 14.1418 18.0353 14.1574Z" fill="#22B7FB"/>
<path d="M16.1261 15.6815C16.1385 15.7 16.1501 15.724 16.1576 15.7509C16.1441 15.7316 16.1346 15.7092 16.1261 15.6815Z" fill="#22B7FB"/>
<path d="M12.6237 7.99776C12.6361 8.01629 12.6477 8.04027 12.6552 8.06721C12.6417 8.04785 12.6322 8.02553 12.6237 7.99776Z" fill="#22B7FB"/>
<path d="M18.9644 14.0047C18.9584 14.0144 18.9483 14.0256 18.9324 14.0335C18.9378 14.0222 18.9491 14.0142 18.9644 14.0047Z" fill="#22B7FB"/>
<path d="M18.5114 14.182C18.5134 14.1935 18.5109 14.2051 18.5083 14.2167C18.5011 14.2133 18.4939 14.2099 18.4859 14.2019C18.4924 14.1922 18.4997 14.1871 18.5114 14.182Z" fill="#22B7FB"/>
<path d="M18.5886 14.1665C18.5905 14.1781 18.588 14.1897 18.5855 14.2012C18.5783 14.1978 18.5711 14.1945 18.5631 14.1865C18.5695 14.1768 18.5768 14.1717 18.5886 14.1665Z" fill="#22B7FB"/>
<path d="M14.4104 8.31037C14.4024 8.31383 14.3923 8.31305 14.3816 8.30785C14.39 8.30434 14.3991 8.30524 14.4104 8.31037Z" fill="#22B7FB"/>
<path d="M15.9717 15.2949C15.9789 15.2992 15.9851 15.3082 15.9876 15.3195C15.9795 15.3144 15.9751 15.307 15.9717 15.2949Z" fill="#22B7FB"/>
<path d="M16.0026 15.3721C16.0097 15.3764 16.0159 15.3853 16.0184 15.3966C16.0104 15.3916 16.006 15.3842 16.0026 15.3721Z" fill="#22B7FB"/>
<path d="M16.0334 15.4492C16.0406 15.4535 16.0468 15.4625 16.0493 15.4738C16.0412 15.4687 16.0369 15.4613 16.0334 15.4492Z" fill="#22B7FB"/>
<path d="M16.0952 15.6035C16.1023 15.6078 16.1085 15.6168 16.111 15.6281C16.1029 15.623 16.0986 15.6156 16.0952 15.6035Z" fill="#22B7FB"/>
<path d="M15.9254 15.1869C15.9326 15.1912 15.9388 15.2002 15.9413 15.2115C15.9332 15.2064 15.9288 15.199 15.9254 15.1869Z" fill="#22B7FB"/>
<path d="M15.8637 15.0481C15.8709 15.0524 15.8771 15.0613 15.8796 15.0726C15.8715 15.0676 15.8671 15.0601 15.8637 15.0481Z" fill="#22B7FB"/>
<path d="M16.0643 15.5264C16.0714 15.5307 16.0776 15.5396 16.0801 15.5509C16.0721 15.5459 16.0677 15.5385 16.0643 15.5264Z" fill="#22B7FB"/>
<path d="M17.8665 14.0963C17.8585 14.0997 17.8484 14.099 17.8377 14.0938C17.8462 14.0903 17.8552 14.0912 17.8665 14.0963Z" fill="#22B7FB"/>
<path d="M19.0043 13.9778C19.0003 13.9864 18.9916 13.9958 18.9778 14.0022C18.9817 13.9924 18.9907 13.9855 19.0043 13.9778Z" fill="#22B7FB"/>
<path d="M13.8734 11.916C13.8805 11.9203 13.8867 11.9292 13.8892 11.9405C13.8811 11.9355 13.8768 11.928 13.8734 11.916Z" fill="#22B7FB"/>
<path d="M13.8116 11.7771C13.8188 11.7814 13.825 11.7903 13.8275 11.8017C13.8194 11.7966 13.8151 11.7892 13.8116 11.7771Z" fill="#22B7FB"/>
<path d="M13.7808 11.7C13.7879 11.7043 13.7941 11.7132 13.7966 11.7245C13.7886 11.7195 13.7842 11.712 13.7808 11.7Z" fill="#22B7FB"/>
<path d="M13.7499 11.6228C13.7571 11.6271 13.7633 11.6361 13.7658 11.6474C13.7577 11.6423 13.7533 11.6349 13.7499 11.6228Z" fill="#22B7FB"/>
<path d="M12.5927 7.91982C12.5999 7.92412 12.6061 7.93307 12.6086 7.94438C12.6005 7.93932 12.5962 7.93189 12.5927 7.91982Z" fill="#22B7FB"/>
<path d="M12.6853 8.15125C12.6925 8.15555 12.6987 8.16451 12.7012 8.17582C12.6931 8.17076 12.6887 8.16333 12.6853 8.15125Z" fill="#22B7FB"/>
<path d="M14.7903 8.44433C14.7798 8.44521 14.7669 8.44151 14.7526 8.43234C14.7635 8.43116 14.7757 8.43546 14.7903 8.44433Z" fill="#22B7FB"/>
<path d="M14.3332 8.27951C14.3253 8.28297 14.3152 8.28219 14.3044 8.27699C14.3129 8.27348 14.322 8.27438 14.3332 8.27951Z" fill="#22B7FB"/>
<path d="M13.2523 7.07782C13.2481 7.08024 13.2448 7.07786 13.2409 7.0718C13.2453 7.06678 13.2497 7.06841 13.2523 7.07782Z" fill="#22B7FB"/>
<path d="M16.5564 10.6024C16.4663 10.5552 16.3714 10.515 16.2872 10.4589C16.199 10.4003 16.1176 10.3299 16.0396 10.2578C15.993 10.2147 15.9567 10.1598 15.9191 10.1078C15.8817 10.0562 15.8764 9.94164 15.9058 9.90685C15.9603 9.84225 16.0242 9.82223 16.109 9.85956C16.2527 9.92279 16.3991 9.9833 16.5332 10.0637C16.7197 10.1755 16.8449 10.3479 16.9426 10.5402C16.9769 10.6076 17.0114 10.6749 17.0417 10.748C17.0109 10.7496 16.9843 10.7454 16.9576 10.7412C16.9359 10.7352 16.9142 10.7291 16.8838 10.7174C16.8203 10.6959 16.7655 10.68 16.7107 10.6641C16.6989 10.6581 16.6871 10.652 16.668 10.641C16.6518 10.635 16.6427 10.6341 16.6336 10.6332C16.6217 10.6272 16.6099 10.6212 16.5909 10.6101C16.5746 10.6042 16.5655 10.6033 16.5564 10.6024Z" fill="white"/>
<path d="M16.7119 10.6694C16.7655 10.68 16.8203 10.6959 16.8781 10.7167C16.8251 10.7059 16.769 10.6903 16.7119 10.6694Z" fill="#22B7FB"/>
<path d="M16.9587 10.7465C16.9843 10.7454 17.0109 10.7496 17.0435 10.753C17.0192 10.8184 16.9896 10.7638 16.9587 10.7465Z" fill="#22B7FB"/>
<path d="M16.6342 10.6376C16.6427 10.6341 16.6518 10.635 16.663 10.6402C16.655 10.6436 16.645 10.6428 16.6342 10.6376Z" fill="#22B7FB"/>
<path d="M16.5571 10.6068C16.5655 10.6033 16.5746 10.6042 16.5858 10.6093C16.5779 10.6128 16.5678 10.612 16.5571 10.6068Z" fill="#22B7FB"/>
</svg>
